<svg width="34" height="31" viewBox="0 0 34 31" fill="none" xmlns="http://www.w3.org/2000/svg">
<path d="M21.7808 24.452L22.0424 21.4185C22.0778 20.9589 22.4879 20.5487 22.9475 20.5134L25.981 20.2517C26.5537 20.0608 26.8295 19.4032 26.5608 18.8517L25.9315 17.6001C25.783 17.296 25.3729 17.0415 25.0335 17.0415L21.8161 17.0344C21.5828 17.0415 21.2646 16.9071 21.1019 16.7445L19.0867 14.7292C18.7897 14.4323 18.8675 14.0716 19.2564 13.909L24.2274 11.9362C25.0052 11.625 25.1607 10.8897 24.5668 10.2957L23.6546 9.38351C23.1808 8.90975 22.2828 8.71883 21.6606 8.97339L16.0037 11.222C15.8411 11.2856 15.5936 11.2361 15.4663 11.1089L13.345 8.98753C12.6803 8.32285 11.4075 8.02587 10.5095 8.31578C10.1913 8.42185 9.9438 8.66934 9.83773 8.98753C9.54782 9.88556 9.85188 11.1654 10.5166 11.8301L12.6379 13.9514C12.7652 14.0787 12.8147 14.3262 12.751 14.4888L10.5095 20.1386C10.2479 20.7538 10.4388 21.6518 10.9125 22.1256L11.8247 23.0377C12.4187 23.6317 13.1541 23.4762 13.4652 22.6983L15.438 17.7274C15.5865 17.3385 15.9613 17.2607 16.2583 17.5577L18.2735 19.5729C18.4362 19.7356 18.5705 20.0538 18.5705 20.28L18.5776 23.4974C18.5776 23.8368 18.8251 24.2398 19.1362 24.3954L20.3878 25.0247C20.9252 25.3076 21.5898 25.0389 21.7808 24.452Z" stroke="#282828" stroke-opacity="0.9" stroke-width="1.5" stroke-linecap="round" stroke-linejoin="round"/>
</svg>
