<svg width="16" height="17" viewBox="0 0 16 17" fill="none" xmlns="http://www.w3.org/2000/svg">
<path d="M2.66669 9.50002V13.1C2.66669 14.2334 3.59335 15.1667 4.73335 15.1667H11.2667C12.4 15.1667 13.3334 14.24 13.3334 13.1V9.50002C13.3334 9.31335 13.1867 9.16669 13 9.16669H3.00002C2.81335 9.16669 2.66669 9.31335 2.66669 9.50002ZM5.92002 12.7534C5.76669 12.9134 5.55335 13 5.33335 13C5.28002 13 5.22669 12.9934 5.17335 12.9867C5.12002 12.9734 5.06669 12.96 5.01335 12.9334C4.96669 12.9134 4.91335 12.8867 4.87335 12.86C4.82669 12.8267 4.78002 12.7934 4.74669 12.7534C4.58669 12.6 4.50002 12.3867 4.50002 12.1667C4.50002 11.9467 4.58669 11.7334 4.74669 11.58C4.78002 11.54 4.82669 11.5067 4.87335 11.4734C4.91335 11.4467 4.96669 11.42 5.01335 11.4C5.06669 11.3734 5.12002 11.36 5.17335 11.3467C5.44002 11.2934 5.72669 11.3867 5.92002 11.58C6.08002 11.7334 6.16669 11.9467 6.16669 12.1667C6.16669 12.3867 6.08002 12.6 5.92002 12.7534ZM11.2534 12.7534C11.22 12.7934 11.1734 12.8267 11.1267 12.86C11.0867 12.8867 11.0334 12.9134 10.9867 12.9334C10.9334 12.96 10.88 12.9734 10.8334 12.9867C10.7734 12.9934 10.72 13 10.6667 13C10.6134 13 10.56 12.9934 10.5067 12.9867C10.4534 12.9734 10.4 12.96 10.3467 12.9334C10.3 12.9134 10.2467 12.8867 10.2067 12.86C10.16 12.8267 10.1134 12.7934 10.08 12.7534C9.92002 12.6 9.83335 12.3867 9.83335 12.1667C9.83335 11.9467 9.92002 11.7334 10.08 11.58C10.1134 11.54 10.16 11.5067 10.2067 11.4734C10.2467 11.4467 10.3 11.42 10.3467 11.4C10.4 11.3734 10.4534 11.36 10.5067 11.3467C10.6134 11.3267 10.72 11.3267 10.8334 11.3467C10.88 11.36 10.9334 11.3734 10.9867 11.4C11.0334 11.42 11.0867 11.4467 11.1267 11.4734C11.1734 11.5067 11.22 11.54 11.2534 11.58C11.4134 11.7334 11.5 11.9467 11.5 12.1667C11.5 12.3867 11.4134 12.6 11.2534 12.7534Z" fill="#444444"/>
<path d="M11.2667 1.83331H4.73335C3.59335 1.83331 2.66669 2.75998 2.66669 3.89998V5.49998C2.66669 5.68665 2.81335 5.83331 3.00002 5.83331H13C13.1867 5.83331 13.3334 5.68665 13.3334 5.49998V3.89998C13.3334 2.75998 12.4067 1.83331 11.2667 1.83331ZM9.66669 4.33331H6.33335C6.06002 4.33331 5.83335 4.10665 5.83335 3.83331C5.83335 3.55998 6.06002 3.33331 6.33335 3.33331H9.66669C9.94002 3.33331 10.1667 3.55998 10.1667 3.83331C10.1667 4.10665 9.94002 4.33331 9.66669 4.33331Z" fill="#444444"/>
<path d="M13 8.5H3.00002C2.81335 8.5 2.66669 8.35333 2.66669 8.16667V6.83333C2.66669 6.64667 2.81335 6.5 3.00002 6.5H13C13.1867 6.5 13.3334 6.64667 13.3334 6.83333V8.16667C13.3334 8.35333 13.1867 8.5 13 8.5Z" fill="#444444"/>
</svg>
