<svg width="20" height="20" viewBox="0 0 20 20" fill="none" xmlns="http://www.w3.org/2000/svg">
<path d="M13.9582 2.96667V1.66667C13.9582 1.325 13.6749 1.04167 13.3332 1.04167C12.9915 1.04167 12.7082 1.325 12.7082 1.66667V2.91667H7.29153V1.66667C7.29153 1.325 7.0082 1.04167 6.66653 1.04167C6.32487 1.04167 6.04153 1.325 6.04153 1.66667V2.96667C3.79153 3.175 2.69987 4.51667 2.5332 6.50833C2.51653 6.75 2.71653 6.95 2.94987 6.95H17.0499C17.2915 6.95 17.4915 6.74167 17.4665 6.50833C17.2999 4.51667 16.2082 3.175 13.9582 2.96667Z" fill="#444444"/>
<path d="M16.6667 8.2H3.33333C2.875 8.2 2.5 8.575 2.5 9.03333V14.1667C2.5 16.6667 3.75 18.3333 6.66667 18.3333H13.3333C16.25 18.3333 17.5 16.6667 17.5 14.1667V9.03333C17.5 8.575 17.125 8.2 16.6667 8.2ZM7.675 15.175C7.59167 15.25 7.5 15.3083 7.4 15.35C7.3 15.3917 7.19167 15.4167 7.08333 15.4167C6.975 15.4167 6.86667 15.3917 6.76667 15.35C6.66667 15.3083 6.575 15.25 6.49167 15.175C6.34167 15.0167 6.25 14.8 6.25 14.5833C6.25 14.3667 6.34167 14.15 6.49167 13.9917C6.575 13.9167 6.66667 13.8583 6.76667 13.8167C6.96667 13.7333 7.2 13.7333 7.4 13.8167C7.5 13.8583 7.59167 13.9167 7.675 13.9917C7.825 14.15 7.91667 14.3667 7.91667 14.5833C7.91667 14.8 7.825 15.0167 7.675 15.175ZM7.85 11.9833C7.80833 12.0833 7.75 12.175 7.675 12.2583C7.59167 12.3333 7.5 12.3917 7.4 12.4333C7.3 12.475 7.19167 12.5 7.08333 12.5C6.975 12.5 6.86667 12.475 6.76667 12.4333C6.66667 12.3917 6.575 12.3333 6.49167 12.2583C6.41667 12.175 6.35833 12.0833 6.31667 11.9833C6.275 11.8833 6.25 11.775 6.25 11.6667C6.25 11.5583 6.275 11.45 6.31667 11.35C6.35833 11.25 6.41667 11.1583 6.49167 11.075C6.575 11 6.66667 10.9417 6.76667 10.9C6.96667 10.8167 7.2 10.8167 7.4 10.9C7.5 10.9417 7.59167 11 7.675 11.075C7.75 11.1583 7.80833 11.25 7.85 11.35C7.89167 11.45 7.91667 11.5583 7.91667 11.6667C7.91667 11.775 7.89167 11.8833 7.85 11.9833ZM10.5917 12.2583C10.5083 12.3333 10.4167 12.3917 10.3167 12.4333C10.2167 12.475 10.1083 12.5 10 12.5C9.89167 12.5 9.78333 12.475 9.68333 12.4333C9.58333 12.3917 9.49167 12.3333 9.40833 12.2583C9.25833 12.1 9.16667 11.8833 9.16667 11.6667C9.16667 11.45 9.25833 11.2333 9.40833 11.075C9.49167 11 9.58333 10.9417 9.68333 10.9C9.88333 10.8083 10.1167 10.8083 10.3167 10.9C10.4167 10.9417 10.5083 11 10.5917 11.075C10.7417 11.2333 10.8333 11.45 10.8333 11.6667C10.8333 11.8833 10.7417 12.1 10.5917 12.2583Z" fill="#444444"/>
</svg>
