<?xml version="1.0" encoding="utf-8"?>
<!-- Generator: Adobe Illustrator 27.5.0, SVG Export Plug-In . SVG Version: 6.00 Build 0)  -->
<svg version="1.1" xmlns="http://www.w3.org/2000/svg" xmlns:xlink="http://www.w3.org/1999/xlink" x="0px" y="0px"
	 viewBox="0 0 500 500" style="enable-background:new 0 0 500 500;" xml:space="preserve">
<g id="Background_Simple">
	<g>
		<path style="fill:#92E3A9;" d="M324.181,23.357c0,0-72.735-25.863-144.133,15.313C108.65,79.846,72.624,161.586,41.688,227.062
			C10.751,292.539,28.558,359.14,83.061,389.508c54.503,30.368,91.563-14.398,168.022-16.578
			c76.459-2.18,97.023,8.751,160.468-34.441c63.446-43.192,74.914-145.199,24.866-220.677
			C386.368,42.334,324.181,23.357,324.181,23.357z"/>
		<path style="opacity:0.7;fill:#FFFFFF;" d="M324.181,23.357c0,0-72.735-25.863-144.133,15.313
			C108.65,79.846,72.624,161.586,41.688,227.062C10.751,292.539,28.558,359.14,83.061,389.508
			c54.503,30.368,91.563-14.398,168.022-16.578c76.459-2.18,97.023,8.751,160.468-34.441
			c63.446-43.192,74.914-145.199,24.866-220.677C386.368,42.334,324.181,23.357,324.181,23.357z"/>
	</g>
</g>
<g id="Plants">
	<g>
		<path style="fill:#92E3A9;" d="M454.357,398.164c-4.005-0.577-11.609-5.531-11.615-5.535c-0.079-0.052,4.787-4.02,5.122-4.236
			c3.887-2.489,12.859-5.016,16.848-1.729c2.873,2.368,2.671,6.588,0.133,9.101C462.252,398.333,457.769,398.655,454.357,398.164z"
			/>
		<path style="fill:#92E3A9;" d="M379.767,359.771c-0.094,0.001,1.775-5.993,1.936-6.358c1.868-4.22,7.958-11.277,13.098-10.736
			c3.703,0.39,5.862,4.021,5.131,7.517c-0.746,3.572-4.307,6.314-7.424,7.786C388.849,359.709,379.774,359.771,379.767,359.771z"/>
		<path style="fill:#92E3A9;" d="M372.298,459.827c-1.768,2.199-3.375,4.269-4.818,6.173h-3.642c1.833-2.35,3.967-5.009,6.38-7.881
			c1.402-1.677,2.934-3.44,4.524-5.236c-0.363-0.44-2.416-2.959-4.036-5.552c-3.25,1.086-9.891,0.798-10.747,0.755
			c-0.25,2.138-0.472,4.22-0.651,6.187c-0.414,4.448-0.67,8.399-0.836,11.727h-2.956c0.242-3.397,0.591-7.444,1.115-12.004
			c0.245-2.172,0.549-4.488,0.885-6.863c-0.835-0.255-7.646-2.379-10.147-4.593c-2.268-2.009-4.599-5.198-4.351-8.395
			c0.243-3.13,2.958-5.663,6.179-5.081c4.47,0.807,7.874,8.259,8.412,12.279c0.032,0.237,0.089,2.849,0.097,4.497
			c0.142-0.97,0.269-1.913,0.428-2.909c0.3-1.972,0.658-3.932,1.035-6.042c0.218-1.012,0.438-2.035,0.661-3.068
			c0.198-1.029,0.539-2.091,0.806-3.147c0.672-2.436,1.47-4.873,2.33-7.31c-1.727-0.267-7.845-1.304-10.403-2.953
			c-2.546-1.642-5.333-4.441-5.572-7.639c-0.234-3.131,2.066-6.046,5.338-5.96c4.541,0.121,9.034,6.971,10.175,10.864
			c0.071,0.243,0.576,3.128,0.823,4.718c0.528-1.461,1.047-2.922,1.63-4.382c1.68-4.216,3.512-8.432,5.32-12.645
			c0.555-1.291,1.092-2.582,1.634-3.874c-0.615-0.088-7.914-1.164-10.778-3.011c-2.546-1.642-5.333-4.441-5.572-7.639
			c-0.234-3.131,2.066-6.046,5.337-5.959c4.541,0.121,9.034,6.971,10.175,10.863c0.086,0.294,0.806,4.446,0.938,5.511
			c1.194-2.845,2.358-5.692,3.391-8.544c1.431-3.934,2.618-7.873,3.485-11.774c-0.287-0.04-7.909-1.129-10.843-3.021
			c-2.546-1.642-5.333-4.441-5.572-7.639c-0.234-3.131,2.066-6.046,5.337-5.959c4.542,0.12,9.034,6.971,10.175,10.863
			c0.075,0.256,0.627,3.418,0.854,4.929c0.143,0.003,0.117,0.003,0.259,0.006c0.879-4.19,1.202-8.36,1.313-12.277
			c0.068-2.269,0.007-4.442-0.101-6.555c-1.44-0.057-8.02-0.391-10.849-1.802c-2.711-1.353-5.789-3.828-6.378-6.981
			c-0.576-3.087,1.39-6.237,4.651-6.51c4.527-0.379,9.745,5.937,11.306,9.68c0.085,0.204,0.719,2.369,1.159,3.952
			c-0.064-0.953-0.111-1.937-0.189-2.849c-0.286-3.423-0.76-6.54-1.201-9.297c-0.264-1.566-0.534-2.976-0.799-4.293
			c-1.384-0.793-6.923-4.061-8.75-6.571c-1.783-2.449-3.373-6.066-2.443-9.134c0.911-3.005,4.107-4.895,7.127-3.634
			c4.192,1.75,5.913,9.759,5.574,13.802c-0.03,0.349-1.116,5.76-1.189,5.719c0,0-0.068-0.038-0.084-0.048
			c0.282,1.262,0.569,2.619,0.853,4.108c0.502,2.753,1.045,5.868,1.407,9.299c0.371,3.427,0.677,7.161,0.644,11.123
			c-0.027,3.971-0.258,8.147-1.053,12.419c-0.009,0.048-0.025,0.097-0.034,0.145c0.621-1.177,2.465-4.411,2.636-4.643
			c2.395-3.274,8.946-8.193,13.259-6.764c3.107,1.029,4.28,4.552,2.997,7.417c-1.31,2.927-4.882,4.614-7.835,5.294
			c-3.33,0.767-10.59-0.709-11.168-0.828c-0.794,4.061-1.939,8.165-3.327,12.253c-0.791,2.339-1.66,4.669-2.561,6.995
			c0.569-1.001,1.086-1.891,1.172-2.008c2.395-3.274,8.947-8.192,13.259-6.764c3.107,1.029,4.28,4.551,2.998,7.417
			c-1.31,2.927-4.882,4.614-7.835,5.294c-2.996,0.69-9.211-0.444-10.852-0.766c-0.355,0.889-0.7,1.78-1.058,2.667
			c-1.718,4.257-3.452,8.499-5.025,12.71c-0.555,1.484-1.047,2.966-1.545,4.447c0.507-0.888,0.941-1.632,1.018-1.738
			c2.395-3.274,8.947-8.192,13.259-6.764c3.107,1.029,4.281,4.551,2.997,7.418c-1.31,2.926-4.882,4.613-7.835,5.293
			c-2.859,0.658-8.605-0.337-10.556-0.71c-0.464,1.532-0.931,3.065-1.312,4.571c-0.236,1.034-0.536,2.013-0.716,3.064
			c-0.2,1.037-0.398,2.064-0.594,3.081c-0.306,1.972-0.633,4.006-0.883,5.938c-0.184,1.342-0.334,2.624-0.49,3.916
			c0.535-1.483,1.644-4.366,1.764-4.596c1.243-2.392,4.192-5.769,7.344-7.55c0.182-0.354,0.393-0.691,0.638-1.006
			c1.93-2.476,5.592-3.091,7.957-0.829c3.283,3.139,2.011,11.232,0.242,14.882c-0.104,0.215-1.498,2.425-2.4,3.805
			c0.654-0.73,1.28-1.447,1.962-2.19c1.339-1.48,2.718-2.917,4.197-4.469c0.74-0.724,1.488-1.455,2.243-2.194
			c0.733-0.749,1.603-1.446,2.408-2.18c1.905-1.661,3.915-3.253,5.976-4.812c-1.292-1.176-5.823-5.415-7.047-8.202
			c-1.218-2.774-1.998-6.647-0.433-9.445c1.532-2.74,5.058-3.903,7.739-2.026c3.721,2.605,3.69,10.798,2.494,14.674
			c-0.074,0.242-1.245,2.927-1.917,4.389c1.247-0.927,2.486-1.859,3.777-2.756c3.727-2.59,7.58-5.095,11.413-7.612
			c1.175-0.77,2.335-1.552,3.501-2.329c-0.465-0.413-5.959-5.337-7.329-8.458c-1.218-2.774-1.998-6.646-0.434-9.445
			c1.532-2.74,5.059-3.903,7.739-2.026c3.721,2.606,3.689,10.798,2.494,14.674c-0.09,0.292-1.78,4.153-2.258,5.113
			c2.565-1.714,5.106-3.446,7.542-5.255c3.364-2.492,6.527-5.122,9.402-7.898c-0.217-0.192-5.974-5.304-7.378-8.501
			c-1.218-2.774-1.998-6.647-0.433-9.445c1.532-2.741,5.059-3.903,7.739-2.026c3.722,2.606,3.69,10.798,2.494,14.674
			c-0.078,0.255-1.364,3.199-2.007,4.584c0.117,0.082,0.096,0.066,0.212,0.148c3.045-3.011,5.616-6.31,7.869-9.518
			c1.309-1.855,2.456-3.701,3.532-5.522c-1.17-0.842-6.474-4.75-8.055-7.488c-1.515-2.624-2.716-6.387-1.468-9.341
			c1.222-2.892,4.6-4.435,7.47-2.863c3.985,2.181,4.853,10.327,4.09,14.311c-0.041,0.216-0.707,2.372-1.213,3.936
			c0.472-0.829,0.976-1.676,1.413-2.48c1.65-3.013,2.974-5.874,4.127-8.417c0.644-1.452,1.197-2.777,1.702-4.022
			c-0.717-1.425-3.534-7.206-3.673-10.307c-0.136-3.026,0.533-6.92,3.001-8.966c2.418-2.004,6.126-1.817,7.949,0.901
			c2.531,3.772-0.452,11.402-2.965,14.586c-0.217,0.275-4.108,4.189-4.146,4.115c0,0-0.035-0.07-0.044-0.086
			c-0.462,1.208-0.971,2.498-1.555,3.896c-1.099,2.573-2.366,5.471-3.956,8.532c-1.581,3.062-3.386,6.346-5.598,9.632
			c-2.214,3.297-4.71,6.653-7.73,9.777c-0.034,0.035-0.074,0.068-0.108,0.103c1.167-0.64,4.49-2.319,4.76-2.419
			c3.803-1.409,11.982-1.897,14.79,1.673c2.023,2.573,1.06,6.158-1.592,7.841c-2.708,1.718-6.617,1.154-9.455,0.093
			c-3.2-1.197-8.442-6.434-8.857-6.852c-2.903,2.949-6.122,5.74-9.535,8.385c-1.949,1.515-3.96,2.979-5.995,4.422
			c1.027-0.521,1.949-0.978,2.085-1.029c3.804-1.41,11.982-1.897,14.79,1.673c2.024,2.573,1.059,6.158-1.592,7.84
			c-2.707,1.719-6.617,1.155-9.455,0.094c-2.879-1.078-7.438-5.452-8.628-6.625c-0.786,0.545-1.565,1.099-2.354,1.641
			c-3.782,2.602-7.568,5.183-11.203,7.829c-1.282,0.931-2.51,1.896-3.742,2.857c0.913-0.461,1.685-0.842,1.809-0.888
			c3.803-1.41,11.981-1.897,14.79,1.673c2.024,2.572,1.059,6.158-1.592,7.84c-2.707,1.718-6.617,1.154-9.455,0.093
			c-2.748-1.028-6.992-5.028-8.413-6.416c-1.231,1.022-2.468,2.043-3.615,3.088c-0.768,0.732-1.558,1.383-2.288,2.161
			c-0.739,0.755-1.471,1.502-2.195,2.242c-1.343,1.477-2.738,2.992-4.012,4.465c-0.894,1.017-1.727,2.004-2.569,2.996
			c1.264-0.942,3.78-2.734,4.007-2.86c3.546-1.97,11.555-3.691,14.873-0.587c2.389,2.236,1.98,5.926-0.386,7.991
			c-2.416,2.109-6.366,2.144-9.332,1.524c-3.265-0.682-9.025-4.866-9.741-5.393C374.867,456.67,373.533,458.284,372.298,459.827z"/>
	</g>
	<g>
		<path style="fill:#92E3A9;" d="M328.357,398.164c-4.005-0.577-11.609-5.531-11.615-5.535c-0.079-0.052,4.787-4.02,5.122-4.236
			c3.887-2.489,12.859-5.016,16.848-1.729c2.873,2.368,2.671,6.588,0.133,9.101C336.252,398.333,331.769,398.655,328.357,398.164z"
			/>
		<path style="fill:#92E3A9;" d="M253.767,359.771c-0.094,0.001,1.775-5.993,1.936-6.358c1.868-4.22,7.958-11.277,13.098-10.736
			c3.703,0.39,5.862,4.021,5.131,7.517c-0.746,3.572-4.307,6.314-7.424,7.786C262.849,359.709,253.774,359.771,253.767,359.771z"/>
		<path style="fill:#92E3A9;" d="M246.298,459.827c-1.768,2.199-3.375,4.269-4.818,6.173h-3.642c1.833-2.35,3.967-5.009,6.38-7.881
			c1.402-1.677,2.934-3.44,4.524-5.236c-0.363-0.44-2.416-2.959-4.036-5.552c-3.25,1.086-9.891,0.798-10.747,0.755
			c-0.25,2.138-0.472,4.22-0.651,6.187c-0.414,4.448-0.67,8.399-0.836,11.727h-2.956c0.242-3.397,0.59-7.444,1.115-12.004
			c0.244-2.172,0.549-4.488,0.885-6.863c-0.835-0.255-7.646-2.379-10.147-4.593c-2.268-2.009-4.599-5.198-4.351-8.395
			c0.243-3.13,2.958-5.663,6.179-5.081c4.47,0.807,7.874,8.259,8.412,12.279c0.032,0.237,0.089,2.849,0.097,4.497
			c0.142-0.97,0.269-1.913,0.428-2.909c0.3-1.972,0.658-3.932,1.035-6.042c0.218-1.012,0.438-2.035,0.661-3.068
			c0.198-1.029,0.539-2.091,0.806-3.147c0.672-2.436,1.47-4.873,2.33-7.31c-1.727-0.267-7.845-1.304-10.402-2.953
			c-2.546-1.642-5.333-4.441-5.572-7.639c-0.234-3.131,2.066-6.046,5.338-5.96c4.541,0.121,9.034,6.971,10.175,10.864
			c0.071,0.243,0.576,3.128,0.823,4.718c0.528-1.461,1.047-2.922,1.63-4.382c1.68-4.216,3.511-8.432,5.32-12.645
			c0.555-1.291,1.092-2.582,1.634-3.874c-0.615-0.088-7.914-1.164-10.778-3.011c-2.546-1.642-5.333-4.441-5.572-7.639
			c-0.234-3.131,2.066-6.046,5.337-5.959c4.541,0.121,9.035,6.971,10.175,10.863c0.086,0.294,0.806,4.446,0.938,5.511
			c1.194-2.845,2.358-5.692,3.391-8.544c1.431-3.934,2.618-7.873,3.485-11.774c-0.287-0.04-7.909-1.129-10.843-3.021
			c-2.546-1.642-5.333-4.441-5.572-7.639c-0.234-3.131,2.066-6.046,5.337-5.959c4.542,0.12,9.034,6.971,10.175,10.863
			c0.075,0.256,0.627,3.418,0.854,4.929c0.143,0.003,0.117,0.003,0.26,0.006c0.879-4.19,1.202-8.36,1.313-12.277
			c0.068-2.269,0.007-4.442-0.101-6.555c-1.44-0.057-8.02-0.391-10.849-1.802c-2.711-1.353-5.789-3.828-6.378-6.981
			c-0.576-3.087,1.39-6.237,4.651-6.51c4.527-0.379,9.745,5.937,11.306,9.68c0.085,0.204,0.719,2.369,1.159,3.952
			c-0.064-0.953-0.111-1.937-0.189-2.849c-0.286-3.423-0.76-6.54-1.201-9.297c-0.264-1.566-0.533-2.976-0.799-4.293
			c-1.385-0.793-6.923-4.061-8.75-6.571c-1.783-2.449-3.373-6.066-2.443-9.134c0.911-3.005,4.107-4.895,7.127-3.634
			c4.192,1.75,5.913,9.759,5.574,13.802c-0.03,0.349-1.116,5.76-1.189,5.719c0,0-0.068-0.038-0.084-0.048
			c0.282,1.262,0.569,2.619,0.853,4.108c0.502,2.753,1.045,5.868,1.407,9.299c0.371,3.427,0.677,7.161,0.644,11.123
			c-0.027,3.971-0.258,8.147-1.053,12.419c-0.009,0.048-0.025,0.097-0.034,0.145c0.621-1.177,2.465-4.411,2.636-4.643
			c2.395-3.274,8.946-8.193,13.259-6.764c3.107,1.029,4.28,4.552,2.997,7.417c-1.31,2.927-4.882,4.614-7.835,5.294
			c-3.33,0.767-10.59-0.709-11.168-0.828c-0.794,4.061-1.939,8.165-3.326,12.253c-0.791,2.339-1.66,4.669-2.561,6.995
			c0.569-1.001,1.086-1.891,1.171-2.008c2.395-3.274,8.947-8.192,13.259-6.764c3.107,1.029,4.28,4.551,2.998,7.417
			c-1.31,2.927-4.882,4.614-7.835,5.294c-2.995,0.69-9.211-0.444-10.852-0.766c-0.355,0.889-0.7,1.78-1.058,2.667
			c-1.718,4.257-3.452,8.499-5.025,12.71c-0.555,1.484-1.047,2.966-1.545,4.447c0.507-0.888,0.941-1.632,1.018-1.738
			c2.395-3.274,8.947-8.192,13.259-6.764c3.107,1.029,4.281,4.551,2.997,7.418c-1.31,2.926-4.882,4.613-7.835,5.293
			c-2.859,0.658-8.605-0.337-10.556-0.71c-0.464,1.532-0.931,3.065-1.312,4.571c-0.236,1.034-0.536,2.013-0.716,3.064
			c-0.2,1.037-0.398,2.064-0.594,3.081c-0.306,1.972-0.633,4.006-0.883,5.938c-0.184,1.342-0.334,2.624-0.49,3.916
			c0.535-1.483,1.644-4.366,1.764-4.596c1.243-2.392,4.192-5.769,7.345-7.55c0.182-0.354,0.393-0.691,0.638-1.006
			c1.93-2.476,5.592-3.091,7.957-0.829c3.283,3.139,2.011,11.232,0.242,14.882c-0.104,0.215-1.498,2.425-2.4,3.805
			c0.654-0.73,1.28-1.447,1.962-2.19c1.339-1.48,2.718-2.917,4.197-4.469c0.74-0.724,1.488-1.455,2.243-2.194
			c0.733-0.749,1.603-1.446,2.408-2.18c1.905-1.661,3.915-3.253,5.976-4.812c-1.292-1.176-5.823-5.415-7.047-8.202
			c-1.218-2.774-1.998-6.647-0.433-9.445c1.532-2.74,5.058-3.903,7.739-2.026c3.721,2.605,3.69,10.798,2.494,14.674
			c-0.074,0.242-1.245,2.927-1.917,4.389c1.247-0.927,2.486-1.859,3.777-2.756c3.727-2.59,7.58-5.095,11.413-7.612
			c1.175-0.77,2.335-1.552,3.501-2.329c-0.465-0.413-5.959-5.337-7.329-8.458c-1.218-2.774-1.998-6.646-0.434-9.445
			c1.532-2.74,5.059-3.903,7.739-2.026c3.721,2.606,3.689,10.798,2.494,14.674c-0.09,0.292-1.78,4.153-2.258,5.113
			c2.565-1.714,5.106-3.446,7.541-5.255c3.364-2.492,6.527-5.122,9.402-7.898c-0.217-0.192-5.974-5.304-7.378-8.501
			c-1.218-2.774-1.998-6.647-0.433-9.445c1.532-2.741,5.059-3.903,7.739-2.026c3.722,2.606,3.69,10.798,2.494,14.674
			c-0.078,0.255-1.364,3.199-2.007,4.584c0.117,0.082,0.096,0.066,0.212,0.148c3.045-3.011,5.616-6.31,7.869-9.518
			c1.309-1.855,2.456-3.701,3.532-5.522c-1.17-0.842-6.474-4.75-8.055-7.488c-1.515-2.624-2.716-6.387-1.468-9.341
			c1.222-2.892,4.6-4.435,7.47-2.863c3.985,2.181,4.853,10.327,4.09,14.311c-0.041,0.216-0.707,2.372-1.213,3.936
			c0.472-0.829,0.976-1.676,1.413-2.48c1.65-3.013,2.974-5.874,4.127-8.417c0.644-1.452,1.197-2.777,1.702-4.022
			c-0.717-1.425-3.534-7.206-3.673-10.307c-0.136-3.026,0.533-6.92,3.001-8.966c2.418-2.004,6.126-1.817,7.949,0.901
			c2.531,3.772-0.452,11.402-2.965,14.586c-0.217,0.275-4.108,4.189-4.146,4.115c0,0-0.035-0.07-0.043-0.086
			c-0.462,1.208-0.971,2.498-1.555,3.896c-1.099,2.573-2.366,5.471-3.956,8.532c-1.581,3.062-3.386,6.346-5.598,9.632
			c-2.214,3.297-4.71,6.653-7.73,9.777c-0.034,0.035-0.074,0.068-0.108,0.103c1.167-0.64,4.49-2.319,4.759-2.419
			c3.803-1.409,11.982-1.897,14.79,1.673c2.023,2.573,1.06,6.158-1.592,7.841c-2.708,1.718-6.617,1.154-9.455,0.093
			c-3.2-1.197-8.442-6.434-8.857-6.852c-2.903,2.949-6.122,5.74-9.535,8.385c-1.949,1.515-3.96,2.979-5.995,4.422
			c1.027-0.521,1.949-0.978,2.085-1.029c3.804-1.41,11.982-1.897,14.79,1.673c2.024,2.573,1.059,6.158-1.592,7.84
			c-2.707,1.719-6.617,1.155-9.455,0.094c-2.879-1.078-7.438-5.452-8.628-6.625c-0.786,0.545-1.565,1.099-2.354,1.641
			c-3.782,2.602-7.568,5.183-11.203,7.829c-1.282,0.931-2.51,1.896-3.742,2.857c0.913-0.461,1.685-0.842,1.809-0.888
			c3.803-1.41,11.981-1.897,14.79,1.673c2.024,2.572,1.059,6.158-1.592,7.84c-2.707,1.718-6.617,1.154-9.455,0.093
			c-2.748-1.028-6.991-5.028-8.413-6.416c-1.231,1.022-2.468,2.043-3.615,3.088c-0.768,0.732-1.558,1.383-2.288,2.161
			c-0.739,0.755-1.471,1.502-2.195,2.242c-1.343,1.477-2.738,2.992-4.012,4.465c-0.894,1.017-1.727,2.004-2.569,2.996
			c1.264-0.942,3.78-2.734,4.007-2.86c3.546-1.97,11.555-3.691,14.873-0.587c2.389,2.236,1.98,5.926-0.386,7.991
			c-2.416,2.109-6.366,2.144-9.332,1.524c-3.265-0.682-9.025-4.866-9.741-5.393C248.867,456.67,247.533,458.284,246.298,459.827z"/>
	</g>
	<g>
		<path style="fill:#92E3A9;" d="M48.335,405.729c3.559-0.513,10.314-4.914,10.319-4.918c0.07-0.046-4.253-3.572-4.551-3.763
			c-3.453-2.212-11.425-4.457-14.969-1.536c-2.553,2.104-2.373,5.854-0.118,8.086C41.32,405.88,45.303,406.166,48.335,405.729z"/>
		<path style="fill:#92E3A9;" d="M114.606,371.619c0.084,0.001-1.577-5.325-1.72-5.649c-1.66-3.75-7.07-10.02-11.638-9.538
			c-3.289,0.347-5.208,3.572-4.559,6.679c0.663,3.173,3.827,5.609,6.596,6.918C106.537,371.564,114.6,371.619,114.606,371.619z"/>
		<path style="fill:#92E3A9;" d="M121.241,460.515c1.571,1.953,2.999,3.793,4.281,5.485h3.236c-1.628-2.088-3.524-4.451-5.668-7.002
			c-1.246-1.489-2.607-3.056-4.019-4.652c0.323-0.391,2.147-2.629,3.586-4.933c2.888,0.965,8.788,0.709,9.549,0.671
			c0.222,1.899,0.419,3.749,0.578,5.497c0.368,3.952,0.595,7.462,0.743,10.419h2.626c-0.215-3.018-0.525-6.614-0.991-10.665
			c-0.217-1.93-0.488-3.988-0.786-6.098c0.742-0.226,6.793-2.113,9.015-4.081c2.015-1.785,4.086-4.618,3.866-7.459
			c-0.216-2.781-2.628-5.031-5.49-4.515c-3.971,0.717-6.996,7.338-7.474,10.91c-0.028,0.211-0.079,2.531-0.087,3.996
			c-0.126-0.861-0.239-1.699-0.38-2.585c-0.267-1.752-0.584-3.494-0.92-5.368c-0.194-0.899-0.389-1.808-0.587-2.725
			c-0.176-0.914-0.479-1.857-0.716-2.796c-0.597-2.165-1.306-4.329-2.07-6.495c1.534-0.237,6.97-1.159,9.242-2.624
			c2.262-1.459,4.738-3.946,4.951-6.787c0.208-2.782-1.835-5.372-4.742-5.295c-4.035,0.107-8.027,6.193-9.041,9.652
			c-0.063,0.216-0.512,2.779-0.731,4.192c-0.469-1.298-0.93-2.596-1.448-3.893c-1.492-3.746-3.12-7.491-4.727-11.235
			c-0.493-1.147-0.97-2.295-1.452-3.442c0.547-0.078,7.031-1.034,9.576-2.675c2.262-1.459,4.738-3.946,4.951-6.787
			c0.207-2.782-1.835-5.371-4.742-5.294c-4.034,0.107-8.027,6.193-9.04,9.651c-0.076,0.261-0.716,3.95-0.833,4.896
			c-1.061-2.528-2.095-5.057-3.013-7.591c-1.271-3.496-2.326-6.995-3.096-10.461c0.255-0.036,7.027-1.003,9.634-2.684
			c2.262-1.459,4.738-3.946,4.951-6.787c0.208-2.782-1.836-5.372-4.742-5.295c-4.035,0.107-8.027,6.193-9.04,9.652
			c-0.067,0.227-0.557,3.036-0.759,4.379c-0.127,0.003-0.104,0.002-0.231,0.006c-0.781-3.723-1.068-7.427-1.166-10.908
			c-0.061-2.016-0.006-3.946,0.09-5.823c1.28-0.051,7.126-0.347,9.639-1.601c2.409-1.202,5.143-3.402,5.666-6.202
			c0.512-2.742-1.235-5.541-4.132-5.783c-4.022-0.337-8.658,5.274-10.045,8.6c-0.075,0.181-0.639,2.105-1.03,3.512
			c0.057-0.846,0.099-1.721,0.168-2.531c0.254-3.042,0.675-5.811,1.067-8.261c0.235-1.391,0.474-2.644,0.71-3.815
			c1.23-0.705,6.151-3.608,7.774-5.838c1.584-2.176,2.997-5.389,2.17-8.116c-0.809-2.67-3.649-4.349-6.332-3.229
			c-3.724,1.555-5.253,8.671-4.952,12.262c0.027,0.311,0.991,5.118,1.056,5.081c0,0,0.06-0.034,0.075-0.042
			c-0.25,1.122-0.505,2.327-0.758,3.65c-0.446,2.446-0.928,5.214-1.25,8.262c-0.329,3.045-0.601,6.362-0.572,9.882
			c0.024,3.528,0.229,7.239,0.936,11.034c0.008,0.043,0.022,0.086,0.03,0.129c-0.551-1.046-2.19-3.919-2.342-4.125
			c-2.128-2.909-7.949-7.279-11.78-6.01c-2.76,0.915-3.803,4.044-2.663,6.59c1.164,2.601,4.338,4.1,6.961,4.703
			c2.958,0.682,9.409-0.63,9.922-0.736c0.706,3.608,1.723,7.254,2.955,10.887c0.703,2.078,1.475,4.149,2.275,6.215
			c-0.506-0.889-0.965-1.68-1.041-1.784c-2.128-2.909-7.949-7.278-11.78-6.009c-2.76,0.914-3.803,4.044-2.663,6.59
			c1.164,2.601,4.338,4.099,6.961,4.704c2.661,0.613,8.184-0.395,9.641-0.681c0.315,0.79,0.622,1.581,0.94,2.37
			c1.526,3.782,3.067,7.551,4.465,11.292c0.493,1.319,0.931,2.635,1.373,3.951c-0.45-0.789-0.836-1.45-0.905-1.545
			c-2.128-2.909-7.949-7.279-11.78-6.009c-2.76,0.914-3.803,4.044-2.663,6.59c1.164,2.6,4.338,4.099,6.961,4.703
			c2.54,0.585,7.645-0.299,9.379-0.631c0.412,1.361,0.827,2.723,1.165,4.061c0.21,0.919,0.476,1.788,0.636,2.723
			c0.178,0.922,0.354,1.834,0.528,2.737c0.271,1.753,0.563,3.559,0.784,5.275c0.164,1.193,0.297,2.332,0.435,3.479
			c-0.475-1.318-1.461-3.879-1.567-4.083c-1.105-2.125-3.725-5.126-6.525-6.708c-0.161-0.315-0.349-0.614-0.567-0.894
			c-1.715-2.2-4.968-2.746-7.069-0.737c-2.917,2.789-1.787,9.979-0.215,13.222c0.092,0.191,1.331,2.154,2.132,3.38
			c-0.581-0.649-1.137-1.286-1.743-1.946c-1.189-1.315-2.415-2.592-3.729-3.971c-0.658-0.643-1.322-1.293-1.993-1.949
			c-0.651-0.665-1.424-1.285-2.14-1.937c-1.692-1.476-3.479-2.89-5.31-4.275c1.148-1.044,5.174-4.811,6.261-7.287
			c1.082-2.464,1.775-5.905,0.385-8.392c-1.362-2.435-4.494-3.468-6.876-1.8c-3.306,2.315-3.278,9.594-2.215,13.037
			c0.066,0.215,1.106,2.6,1.703,3.9c-1.108-0.824-2.208-1.652-3.356-2.449c-3.311-2.301-6.735-4.527-10.14-6.763
			c-1.044-0.684-2.075-1.379-3.111-2.07c0.413-0.367,5.295-4.741,6.512-7.515c1.082-2.465,1.776-5.905,0.385-8.392
			c-1.361-2.435-4.494-3.468-6.876-1.8c-3.306,2.315-3.278,9.594-2.216,13.038c0.08,0.259,1.582,3.69,2.006,4.543
			c-2.279-1.523-4.537-3.062-6.7-4.669c-2.989-2.214-5.799-4.551-8.353-7.017c0.192-0.171,5.308-4.713,6.555-7.553
			c1.082-2.465,1.775-5.905,0.385-8.392c-1.361-2.435-4.494-3.468-6.876-1.8c-3.307,2.315-3.278,9.594-2.216,13.037
			c0.07,0.226,1.212,2.842,1.784,4.073c-0.104,0.073-0.085,0.059-0.189,0.132c-2.706-2.675-4.99-5.606-6.992-8.456
			c-1.163-1.648-2.183-3.288-3.138-4.906c1.039-0.748,5.752-4.221,7.157-6.653c1.346-2.331,2.413-5.675,1.304-8.299
			c-1.086-2.57-4.087-3.94-6.637-2.544c-3.54,1.938-4.312,9.176-3.634,12.715c0.037,0.192,0.628,2.108,1.078,3.497
			c-0.42-0.737-0.867-1.49-1.256-2.204c-1.466-2.677-2.642-5.219-3.667-7.478c-0.572-1.29-1.064-2.467-1.512-3.574
			c0.637-1.267,3.14-6.403,3.263-9.158c0.121-2.689-0.473-6.148-2.667-7.966c-2.148-1.78-5.442-1.614-7.063,0.8
			c-2.249,3.352,0.401,10.13,2.634,12.96c0.193,0.245,3.65,3.722,3.684,3.656c0,0,0.032-0.062,0.039-0.076
			c0.41,1.073,0.862,2.22,1.382,3.462c0.977,2.286,2.102,4.861,3.515,7.581c1.405,2.721,3.008,5.638,4.974,8.558
			c1.967,2.93,4.185,5.911,6.868,8.687c0.031,0.032,0.066,0.06,0.096,0.091c-1.037-0.568-3.989-2.06-4.229-2.149
			c-3.379-1.252-10.645-1.685-13.141,1.486c-1.798,2.286-0.941,5.471,1.414,6.966c2.405,1.526,5.879,1.026,8.4,0.083
			c2.843-1.064,7.5-5.716,7.869-6.088c2.579,2.621,5.439,5.1,8.471,7.45c1.732,1.346,3.519,2.647,5.326,3.929
			c-0.912-0.462-1.732-0.869-1.852-0.914c-3.38-1.252-10.646-1.685-13.141,1.487c-1.798,2.286-0.941,5.471,1.414,6.966
			c2.405,1.527,5.88,1.026,8.401,0.083c2.558-0.957,6.608-4.844,7.666-5.887c0.699,0.484,1.391,0.976,2.091,1.458
			c3.361,2.312,6.724,4.605,9.954,6.955c1.139,0.828,2.23,1.684,3.325,2.538c-0.811-0.41-1.497-0.748-1.607-0.789
			c-3.379-1.252-10.645-1.686-13.14,1.486c-1.798,2.285-0.941,5.471,1.415,6.966c2.405,1.526,5.879,1.026,8.4,0.083
			c2.441-0.913,6.212-4.467,7.475-5.7c1.094,0.908,2.193,1.815,3.212,2.744c0.682,0.65,1.384,1.229,2.033,1.92
			c0.657,0.671,1.307,1.335,1.95,1.992c1.193,1.312,2.433,2.658,3.564,3.967c0.794,0.904,1.534,1.781,2.282,2.662
			c-1.123-0.837-3.359-2.429-3.56-2.541c-3.15-1.75-10.266-3.279-13.214-0.521c-2.123,1.987-1.759,5.265,0.343,7.099
			c2.147,1.874,5.656,1.905,8.291,1.354c2.901-0.606,8.018-4.323,8.655-4.791C118.96,457.711,120.145,459.145,121.241,460.515z"/>
	</g>
</g>
<g id="Device">
	<g>
		<path style="fill:#263238;stroke:#263238;stroke-linecap:round;stroke-linejoin:round;stroke-miterlimit:10;" d="M349.459,428.304
			h-184.91c-4.238,0-7.674-3.436-7.674-7.674V57.712c0-4.239,3.436-7.674,7.674-7.674h184.91c4.238,0,7.674,3.436,7.674,7.674
			V420.63C357.134,424.868,353.698,428.304,349.459,428.304z"/>
		
			<rect id="XMLID_2_" x="165.775" y="91.573" style="fill:#FFFFFF;stroke:#263238;stroke-linecap:round;stroke-linejoin:round;stroke-miterlimit:10;" width="182.457" height="295.196"/>
		<path style="fill:#FFFFFF;" d="M276.839,70.912h-39.669c-1.494,0-2.704-1.211-2.704-2.705l0,0c0-1.494,1.211-2.705,2.704-2.705
			h39.669c1.494,0,2.705,1.211,2.705,2.705l0,0C279.543,69.701,278.332,70.912,276.839,70.912z"/>
		
			<path style="fill:#FFFFFF;stroke:#263238;stroke-width:0.7043;stroke-linecap:round;stroke-linejoin:round;stroke-miterlimit:10;" d="
			M267.823,403.437c0-5.975-4.844-10.819-10.819-10.819c-5.975,0-10.818,4.844-10.818,10.819s4.844,10.819,10.818,10.819
			C262.979,414.256,267.823,409.412,267.823,403.437z"/>
		<rect x="251.521" y="397.953" style="fill:#263238;" width="10.966" height="10.967"/>
	</g>
</g>
<g id="Character_2">
	<g>
		<g>
			<path style="fill:#D9D9D9;stroke:#263238;stroke-linecap:round;stroke-linejoin:round;stroke-miterlimit:10;" d="M361.78,274.833
				l-1.179,8.997c0,0-4.883,33.429-1.503,50.707c3.38,17.278,9.766,34.932,10.142,39.063c0.376,4.132-1.878,20.283,0.751,33.429
				c2.629,13.146,7.512,39.063,7.512,39.063l-4.132,9.766c0,0-8.639,5.634-9.766,7.512c-1.127,1.878,0.751,2.629,0.751,2.629H391.4
				c0,0,1.127-2.254,1.127-6.385c0-4.132,0-23.663,0-26.293c0-2.629,1.502-47.327,3.005-55.215c1.502-7.888,3.005-67.61,3.005-67.61
				h1.503c0,0,7.137,59.346,9.015,65.732c1.878,6.385,9.766,33.805,12.02,39.439c2.254,5.634,4.883,25.166,6.385,30.049
				c1.502,4.883,3.005,10.517,3.38,13.522c0.376,3.005,1.878,6.761,1.878,6.761H453c0,0,0.376-3.38-1.127-5.634
				c-1.503-2.254-11.268-12.02-12.771-19.156c-1.503-7.137,2.254-40.19,1.878-51.834c-0.376-11.644-3.756-13.146-3.756-23.288
				c0-10.141,3.756-40.941,3.756-55.59c0-14.649-1.948-28.152-5.669-35.861l-5.223-5.08h-64.605L361.78,274.833z"/>
			<g>
				<path style="fill:#92E3A9;stroke:#263238;stroke-linecap:round;stroke-linejoin:round;stroke-miterlimit:10;" d="
					M442.154,447.92l-0.047,0.051c0,0-5.259-3.38-7.137-0.751c-1.878,2.629-1.878,4.132-1.878,4.132h-4.003
					c0.84,3.106,1.514,6.01,1.749,7.888c0.376,3.005,1.878,6.761,1.878,6.761H453c0,0,0.376-3.38-1.127-5.634
					C450.812,458.774,445.637,453.434,442.154,447.92z"/>
				<path style="fill:#FFFFFF;stroke:#263238;stroke-linecap:round;stroke-linejoin:round;stroke-miterlimit:10;" d="M432.717,466
					H453c0,0,0.128-1.18-0.074-2.609h-21.119C432.273,464.887,432.717,466,432.717,466z"/>
			</g>
			<g>
				<path style="fill:#92E3A9;stroke:#263238;stroke-linecap:round;stroke-linejoin:round;stroke-miterlimit:10;" d="
					M392.527,459.615c0-1.157,0-3.522,0-6.385h-7.137c0,0,0.376-3.005-3.005-5.259c-3.381-2.254-6.761,3.005-6.761,3.005h-0.188
					l-2.066,4.883c0,0-8.639,5.634-9.766,7.512c-1.127,1.878,0.751,2.629,0.751,2.629H391.4
					C391.4,466,392.527,463.746,392.527,459.615z"/>
				<path style="fill:#FFFFFF;stroke:#263238;stroke-linecap:round;stroke-linejoin:round;stroke-miterlimit:10;" d="
					M363.595,463.391c-1.1,1.863,0.762,2.609,0.762,2.609H391.4c0,0,0.449-0.905,0.78-2.609H363.595z"/>
			</g>
			<path style="fill:#FFFFFF;stroke:#263238;stroke-linecap:round;stroke-linejoin:round;stroke-miterlimit:10;" d="M438.998,427.36
				c0.634-12.788,2.234-30.185,1.983-37.984c-0.376-11.644-3.756-13.146-3.756-23.288c0-10.141,3.756-40.941,3.756-55.59
				c0-14.649-1.948-28.152-5.669-35.861l-5.223-5.08h-64.605l-3.704,5.276l-1.179,8.997c0,0-4.883,33.429-1.502,50.707
				c3.38,17.278,9.766,34.932,10.141,39.063c0.376,4.132-1.878,20.283,0.751,33.429c1.154,5.772,2.743,14.005,4.162,21.426
				c4.385,0.955,11.383,2.093,18.454,1.67c0.328-10.879,1.627-45.199,2.926-52.017c1.502-7.888,3.005-67.61,3.005-67.61h1.502
				c0,0,7.137,59.346,9.015,65.732c1.878,6.385,9.766,33.805,12.019,39.439c0.96,2.401,1.989,7.326,2.969,12.565
				C428.083,428.936,433.27,429.067,438.998,427.36z"/>
			
				<line style="fill:none;stroke:#263238;stroke-linecap:round;stroke-linejoin:round;stroke-miterlimit:10;" x1="404.547" y1="307.118" x2="424.829" y2="290.966"/>
			
				<line style="fill:none;stroke:#263238;stroke-linecap:round;stroke-linejoin:round;stroke-miterlimit:10;" x1="374.874" y1="292.469" x2="385.391" y2="301.108"/>
		</g>
		<path style="fill:#263238;stroke:#263238;stroke-linecap:round;stroke-linejoin:round;stroke-miterlimit:10;" d="M418.957,110.46
			c0,0-8.628-5.098-8.432-2.353c0.196,2.745,3.922,4.706,3.922,4.706s-12.353-1.765-14.314-0.98
			c-1.961,0.784,1.372,1.765,1.372,1.765s-15.295,11.765-20.589,19.805c-5.294,8.039-10,19.805-4.51,28.824
			c5.49,9.02,13.53,16.079,27.06,20.001c13.53,3.922,26.864-0.196,35.884-3.922c9.02-3.726,18.04-14.314,16.471-27.648
			c-1.569-13.334-13.334-27.256-22.158-36.668c-8.824-9.412-14.314-8.04-14.314-6.667
			C419.349,108.695,418.957,110.46,418.957,110.46z"/>
		<path style="fill:#D9D9D9;stroke:#263238;stroke-linecap:round;stroke-linejoin:round;stroke-miterlimit:10;" d="M397.838,166.162
			l-2.018,15.084c0,0-14.314,4.706-19.608,6.863c-5.294,2.157-7.647,4.902-8.628,7.255c-0.981,2.353-15.019,34.957-15.608,38.094
			c-0.588,3.137,0.392,4.51,4.706,6.471c4.314,1.961,16.275-5.294,16.275-5.294l1.569,5.49c0,0-7.843,13.334-9.216,17.648
			c-1.373,4.314-3.53,17.059-3.53,17.059s14.902,7.451,38.433,6.863c23.53-0.588,35.099-7.059,35.099-7.059
			s-2.549-12.746-5.294-20.197c-2.745-7.451-5.098-10.393-5.098-13.334c0-2.941,8.628-18.236,8.628-18.236l18.228,8.594
			c0,0-4.306-14.869-5.483-24.869c-1.177-10-3.217-11.623-7.138-15.152c-3.922-3.529-21.177-8.628-21.765-9.02
			c-0.588-0.392,0.784-16.863,0.784-16.863S403.328,169.496,397.838,166.162z"/>
		<path style="fill:#263238;stroke:#263238;stroke-linecap:round;stroke-linejoin:round;stroke-miterlimit:10;" d="M409.215,176.495
			c2.742-1.028,5.999-3.599,8.57-5.913c0.204-2.815,0.388-5.022,0.388-5.022s-14.845,3.936-20.335,0.603l-1.344,10.042
			C399.533,178.904,404.491,178.266,409.215,176.495z"/>
		<g>
			<g>
				<path style="fill:#92E3A9;stroke:#263238;stroke-linecap:round;stroke-linejoin:round;stroke-miterlimit:10;" d="
					M430.017,254.44c-2.745-7.451-5.098-10.393-5.098-13.334s8.628-18.236,8.628-18.236l18.228,8.594c0,0-4.306-14.869-5.483-24.869
					c-0.636-5.409-1.529-8.36-2.832-10.494c-27.938,3.545-58.966-2.821-71.392-5.831c-2.486,1.671-3.81,3.476-4.485,5.095
					c-0.98,2.353-15.019,34.957-15.607,38.094c-0.588,3.137,0.392,4.51,4.706,6.471c4.314,1.961,16.275-5.294,16.275-5.294
					l1.569,5.49c0,0-7.843,13.334-9.216,17.648c-1.373,4.314-3.53,17.059-3.53,17.059s14.902,7.451,38.433,6.863
					c23.53-0.588,35.099-7.059,35.099-7.059S432.762,261.891,430.017,254.44z"/>
				<path style="fill:none;stroke:#263238;stroke-linecap:round;stroke-linejoin:round;stroke-miterlimit:10;" d="M375.481,229.237
					c0,0-3.906-8.167-2.841-12.428c1.065-4.261,1.776-5.326,1.776-5.326"/>
			</g>
			<path style="fill:#92E3A9;stroke:#263238;stroke-linecap:round;stroke-linejoin:round;stroke-miterlimit:10;" d="
				M446.292,206.595c-0.636-5.409-1.529-8.36-2.832-10.494c-27.938,3.545-58.966-2.821-71.392-5.831
				c-2.486,1.671-3.81,3.476-4.485,5.095c-0.345,0.828-2.311,5.412-4.737,11.134c10.994,2.97,53.135,13.427,84.869,8.54
				C447.117,212.126,446.598,209.196,446.292,206.595z"/>
		</g>
		<g>
			<path style="fill:#D9D9D9;stroke:#263238;stroke-linecap:round;stroke-linejoin:round;stroke-miterlimit:10;" d="
				M401.672,129.695l25.028,16.114l-0.686,6.514c0,0,4.457-4.457,5.143,0.343s-1.029,7.2-4.114,8.571
				c-3.086,1.371-4.8,1.029-4.8,1.029s-7.543,8.228-13.028,10.285c-5.486,2.057-11.295,2.598-14.038-1.859
				c-2.743-4.457-6.533-12.541-5.505-17.341c1.029-4.8,10.286-23.657,10.286-23.657H401.672z"/>
			<path style="fill:none;stroke:#263238;stroke-linecap:round;stroke-linejoin:round;stroke-miterlimit:10;" d="M404.129,144.929
				c0,0,0,2.157-1.177,3.334c-1.176,1.176-3.922,2.745-3.922,3.922s2.549,3.529,4.902,3.333"/>
			<path style="fill:none;stroke:#263238;stroke-linecap:round;stroke-linejoin:round;stroke-miterlimit:10;" d="M399.815,158.066
				c0,0,3.53,2.745,7.843-0.196"/>
			<path style="fill:none;stroke:#263238;stroke-linecap:round;stroke-linejoin:round;stroke-miterlimit:10;" d="M409.227,147.87
				c0,0,4.314-1.569,6.667,1.765"/>
			<path style="fill:none;stroke:#263238;stroke-linecap:round;stroke-linejoin:round;stroke-miterlimit:10;" d="M395.893,145.909
				c0,0,3.53-1.569,5.294,0.392"/>
			<path style="fill:none;stroke:#263238;stroke-linecap:round;stroke-linejoin:round;stroke-miterlimit:10;" d="M398.05,139.242
				c0,0,1.765-2.549,5.49-1.569"/>
			<path style="fill:none;stroke:#263238;stroke-linecap:round;stroke-linejoin:round;stroke-miterlimit:10;" d="M411.188,139.635
				c0,0,5.49,0.196,6.667,5.294"/>
		</g>
		<path style="fill:#D9D9D9;stroke:#263238;stroke-linecap:round;stroke-linejoin:round;stroke-miterlimit:10;" d="M360.995,226.988
			c0,0-6.079,2.353-8.039,6.079c-1.961,3.726-1.569,12.353,6.079,14.51c7.647,2.157,64.12-9.216,64.12-9.216s3.137,4.706,4.51,6.079
			c1.373,1.373,4.902,4.118,5.098,5.294s0.588,8.628,2.157,9.02c1.569,0.392,0.98-3.53,0.98-3.53s2.549-3.726,2.549-5.49
			c0-1.765,0.392-7.451,0-8.824c-0.392-1.372-9.608-9.412-11.569-10c-1.961-0.588-52.158-1.961-56.865-2.745
			C365.309,227.38,362.564,226.792,360.995,226.988z"/>
		<g>
			<path style="fill:#92E3A9;stroke:#263238;stroke-miterlimit:10;" d="M410.969,173.027l6.009,3.994
				c1.062,0.706,2.496,0.417,3.202-0.645l12.109-18.219c0.706-1.062,0.417-2.496-0.645-3.202l-6.009-3.994
				c-1.062-0.706-2.496-0.417-3.202,0.645l-12.109,18.219C409.618,170.887,409.907,172.321,410.969,173.027z"/>
			<path style="fill:#D9D9D9;stroke:#263238;stroke-miterlimit:10;" d="M428.99,173.353c0,0,1.236-3.179,2.473-5.476
				c1.236-2.296,1.236-3.356,0.353-3.356c-0.883,0-3.179,1.06-3.886,3.709c-0.707,2.649-0.353,5.829-0.353,5.829L428.99,173.353z"/>
			<path style="fill:#D9D9D9;stroke:#263238;stroke-miterlimit:10;" d="M418.392,185.54c0,0,10.068-10.068,10.421-10.951
				c0.304-0.759-0.045-12.353-0.149-15.592c-0.016-0.488-0.37-0.897-0.85-0.984l0,0c-0.601-0.109-1.165,0.323-1.217,0.931
				l-0.787,9.286l-2.308-11.704c-0.096-0.486-0.522-0.837-1.018-0.837l0,0c-0.593,0-1.065,0.497-1.036,1.089l0.652,13.041
				l-2.904-11.131c-0.152-0.582-0.749-0.927-1.329-0.769l0,0c-0.512,0.14-0.847,0.631-0.789,1.159l1.313,11.977l-2.473,2.12v-4.239
				l-2.959-4.983c-0.224-0.377-0.701-0.517-1.093-0.321l0,0c-0.401,0.2-0.573,0.681-0.389,1.09l1.968,4.391
				c0,0-3.886,15.897-4.063,16.427c-0.177,0.53,0.707,3.356,1.236,4.416c0.53,1.06,24.198,51.223,25.611,53.166
				c1.413,1.943,10.951,4.946,15.19,0.353c4.239-4.592,2.826-9.185,0.53-14.484C449.655,223.692,418.392,185.54,418.392,185.54z"/>
		</g>
	</g>
</g>
<g id="Icons">
	<g>
		<circle style="fill:#92E3A9;" cx="254" cy="149" r="42"/>
		<g>
			<polygon style="fill:#263238;" points="279.645,129.989 229.858,129.989 254.397,153.645 			"/>
			<polygon style="fill:#263238;" points="264.368,148.415 281.701,163.732 281.701,132.174 			"/>
			<polygon style="fill:#263238;" points="244.617,148.384 227.064,131.462 227.064,163.012 			"/>
			<polygon style="fill:#263238;" points="262.169,150.475 254.368,157.784 246.79,150.479 228.523,165.701 279.399,165.701 			"/>
		</g>
	</g>
	<g>
		<circle style="fill:#92E3A9;" cx="254" cy="241" r="42"/>
		<g>
			<path style="fill:#263238;" d="M248.395,227.749c0.595,1.02,1.634,1.274,2.665,0.709c1.367-0.749,2.742-1.497,4.03-2.368
				c0.493-0.333,0.757-1.004,1.101-1.486c-0.249-0.596-0.376-1-0.577-1.363c-0.548-0.992-1.128-1.967-1.695-2.949
				c-1.931-3.345-3.857-6.692-5.794-10.033c-0.777-1.341-1.757-1.6-3.11-0.829c-1.232,0.701-2.469,1.395-3.676,2.137
				c-1.031,0.633-1.33,1.626-0.748,2.646C243.171,218.737,245.77,223.25,248.395,227.749z"/>
			<path style="fill:#263238;" d="M277.222,260.664c-2.528-4.403-5.065-8.8-7.617-13.189c-0.701-1.205-1.665-1.468-2.873-0.801
				c-1.275,0.703-2.535,1.433-3.783,2.182c-1.037,0.622-1.363,1.621-0.826,2.645l8.28,14.125c0.599,0.526,1.401,0.602,2.19,0.173
				c1.34-0.73,2.686-1.462,3.955-2.306c0.504-0.335,0.806-0.972,1.183-1.451C277.513,261.442,277.426,261.02,277.222,260.664z"/>
			<path style="fill:#263238;" d="M260.08,252.412c-1.757,0.623-3.421,0.425-5.036-0.438c-0.839-0.448-1.671-0.962-2.381-1.589
				c-3.788-3.346-6.187-7.553-7.354-12.439c-0.726-3.04-0.926-6.02,1.37-8.394l-8.524-14.542c-0.671,0.43-1.314,0.843-1.923,1.268
				c-2.547,1.779-3.96,4.245-3.73,7.339c0.22,2.955,0.52,5.96,1.291,8.807c2.754,10.168,7.9,19.099,14.703,27.09
				c2.609,3.064,5.525,5.819,9.007,7.902c3.601,2.155,7.884,1.93,11.076-0.507L260.08,252.412z"/>
		</g>
	</g>
	<g>
		<circle style="fill:#92E3A9;" cx="254" cy="333" r="42"/>
		<g>
			<g>
				<g>
					<path style="fill:#263238;" d="M247.811,340.875h-9.335v4.725c0,3.079,2.388,5.596,5.412,5.813L247.811,340.875z"/>
					<path style="fill:#263238;" d="M273.823,324.667h-4.039v8.236c0,4.396-3.576,7.972-7.972,7.972h-0.138l-14.269,10.559h15.495
						l-3.833,10.295l13.913-10.295h0.843c3.222,0,5.834-2.612,5.834-5.834V330.5C279.656,327.279,277.045,324.667,273.823,324.667z"
						/>
				</g>
				<path style="fill:#263238;" d="M261.812,311.97h-29.512c-3.222,0-5.834,2.612-5.834,5.834v15.099
					c0,3.222,2.612,5.834,5.834,5.834h18.589l-3.833,10.295l13.913-10.295h0.843c3.222,0,5.834-2.612,5.834-5.834v-15.099
					C267.646,314.581,265.034,311.97,261.812,311.97z"/>
			</g>
			<g>
				<circle style="fill:#92E3A9;" cx="238.973" cy="324.971" r="2.087"/>
				<path style="fill:#92E3A9;" d="M249.567,324.971c0,1.152-0.934,2.087-2.087,2.087c-1.152,0-2.087-0.934-2.087-2.087
					s0.934-2.087,2.087-2.087C248.632,322.884,249.567,323.819,249.567,324.971z"/>
				<path style="fill:#92E3A9;" d="M258.074,324.971c0,1.152-0.934,2.087-2.087,2.087c-1.153,0-2.087-0.934-2.087-2.087
					s0.934-2.087,2.087-2.087C257.14,322.884,258.074,323.819,258.074,324.971z"/>
			</g>
		</g>
	</g>
</g>
<g id="Character_1">
	<g>
		<path style="fill:#FFFFFF;stroke:#263238;stroke-linecap:round;stroke-linejoin:round;stroke-miterlimit:10;" d="M153.174,210.609
			l0.757-1.031l12.393-16.875c0,0,1.679-10.072,2.518-12.59c0.839-2.518,2.518-7.834,3.078-9.792
			c0.56-1.958,1.119-4.197,2.238-3.357c1.119,0.839,1.119,4.197,0.56,5.875c-0.56,1.679-0.56,3.917-0.28,4.756
			c0.28,0.839,15.108-11.751,16.507-10.632c1.399,1.119-0.56,6.435-3.357,10.072c-2.798,3.637-14.269,16.787-14.269,16.787
			s-13.15,35.253-17.067,40.848c-3.917,5.596-4.756,3.078-8.673,0c-3.917-3.078-8.953-10.072-8.953-10.072L153.174,210.609z"/>
		<path style="fill:#FFFFFF;stroke:#263238;stroke-linecap:round;stroke-linejoin:round;stroke-miterlimit:10;" d="M173.598,187.107
			c0,0,1.399-5.036,2.798-6.155c1.399-1.119,6.715-4.477,6.715-4.477l3.637-11.191c0,0,1.119-0.839,0.839,1.679
			c-0.28,2.518-0.839,8.114-1.679,10.632c-0.839,2.518-4.477,6.995-4.477,6.995"/>
		<g>
			<polygon style="fill:#92E3A9;stroke:#263238;stroke-linecap:round;stroke-linejoin:round;stroke-miterlimit:10;" points="
				133.03,167.802 154.573,210.049 138.066,226.836 133.31,210.889 			"/>
			<polygon style="fill:#263238;stroke:#263238;stroke-miterlimit:10;" points="136.093,220.223 138.066,226.836 154.573,210.049 
				151.604,204.227 			"/>
		</g>
		<g>
			<path style="fill:#263238;stroke:#263238;stroke-linecap:round;stroke-linejoin:round;stroke-miterlimit:10;" d="M81.376,445.982
				l-1.988,7.927c0,0-11.731,6.497-12.633,7.399C65.853,462.21,66.214,466,66.214,466h33.568c0,0,0.361-3.79-0.722-8.663
				c-0.626-2.819-0.926-10.611-0.926-10.611L81.376,445.982z"/>
			<path style="fill:#FFFFFF;stroke:#263238;stroke-linecap:round;stroke-linejoin:round;stroke-miterlimit:10;" d="M66.214,466
				h33.568c0,0,0.076-0.815,0.052-2.166H66.151C66.116,464.956,66.214,466,66.214,466z"/>
			<path style="fill:#FFFFFF;stroke:#263238;stroke-linecap:round;stroke-linejoin:round;stroke-miterlimit:10;" d="M67.477,460.947
				c0,0,2.707-2.707,8.121-3.609c5.414-0.902,10.287,1.083,11.37,2.166c1.083,1.083,1.805,4.151,1.805,4.151l-22.621,0.18
				C66.151,463.834,64.95,461.669,67.477,460.947z"/>
			<path style="fill:#FFFFFF;stroke:#263238;stroke-linecap:round;stroke-linejoin:round;stroke-miterlimit:10;" d="M96.353,452.374
				c0,1.944-0.687,3.519-1.534,3.519c-0.847,0-1.534-1.576-1.534-3.519c0-1.944,0.687-3.519,1.534-3.519
				C95.666,448.855,96.353,450.431,96.353,452.374z"/>
		</g>
		<g>
			<path style="fill:#263238;stroke:#263238;stroke-linecap:round;stroke-linejoin:round;stroke-miterlimit:10;" d="
				M165.181,445.982l1.988,7.927c0,0,11.731,6.497,12.633,7.399c0.902,0.902,0.541,4.692,0.541,4.692h-33.568
				c0,0-0.361-3.79,0.722-8.663c0.626-2.819,0.926-10.611,0.926-10.611L165.181,445.982z"/>
			<path style="fill:#FFFFFF;stroke:#263238;stroke-linecap:round;stroke-linejoin:round;stroke-miterlimit:10;" d="M180.344,466
				h-33.568c0,0-0.076-0.815-0.052-2.166h33.682C180.442,464.956,180.344,466,180.344,466z"/>
			<path style="fill:#FFFFFF;stroke:#263238;stroke-linecap:round;stroke-linejoin:round;stroke-miterlimit:10;" d="M179.08,460.947
				c0,0-2.707-2.707-8.121-3.609c-5.414-0.902-10.287,1.083-11.37,2.166c-1.083,1.083-1.805,4.151-1.805,4.151l22.621,0.18
				C180.406,463.834,181.607,461.669,179.08,460.947z"/>
			<path style="fill:#FFFFFF;stroke:#263238;stroke-linecap:round;stroke-linejoin:round;stroke-miterlimit:10;" d="
				M150.205,452.374c0,1.944,0.687,3.519,1.534,3.519s1.534-1.576,1.534-3.519c0-1.944-0.687-3.519-1.534-3.519
				S150.205,450.431,150.205,452.374z"/>
		</g>
		<polygon style="fill:#FFFFFF;stroke:#263238;stroke-linecap:round;stroke-linejoin:round;stroke-miterlimit:10;" points="
			81.004,277.657 79.886,295.16 81.376,445.982 98.134,446.726 114.892,307.449 117.126,306.704 148.423,446.726 165.181,445.982 
			157.718,352.137 146.459,271.602 		"/>
		<polyline style="fill:none;stroke:#808080;stroke-linecap:round;stroke-linejoin:round;stroke-miterlimit:10;" points="
			116.362,282.409 116.362,295.182 119.845,289.376 120.426,280.667 		"/>
		<g>
			<path style="fill:#92E3A9;stroke:#263238;stroke-linecap:round;stroke-linejoin:round;stroke-miterlimit:10;" d="M92.461,165.844
				c0,0-37.771,16.507-38.33,18.186c-0.56,1.679-10.632,43.366-8.953,47.283c1.679,3.917,6.715,6.995,12.031,5.036
				c5.316-1.958,10.352-22.383,10.352-22.383s11.751,35.812,11.751,39.449s1.119,26.02,1.119,26.02s21.543,3.078,39.449-1.119
				c17.906-4.197,26.579-6.715,26.579-6.715l-8.393-51.2c0,0-4.477-50.641-5.036-52.599c-0.56-1.958-32.455-2.518-34.973-2.238
				C95.539,165.844,92.461,165.844,92.461,165.844z"/>
			<path style="fill:#263238;stroke:#263238;stroke-miterlimit:10;" d="M63.81,225.951c-1.428-4.374-3.965-8.487-6.668-10.889
				c-3.12-2.773-7.273-1.2-10.114,0.518c-1.499,7.768-2.466,14.296-1.85,15.734c1.679,3.917,6.715,6.995,12.031,5.036
				C59.614,235.463,61.96,230.795,63.81,225.951z"/>
		</g>
		<g>
			<path style="fill:#263238;" d="M74.866,236.949l63.717-13.39l-0.518-3.157c0,0-0.092-1.036-0.25-2.813l-64.735,13.604
				C73.68,233.104,74.282,235.043,74.866,236.949z"/>
			<path style="fill:#263238;stroke:#263238;stroke-miterlimit:10;" d="M146.459,271.602l-6.285-38.341l-62.558,12.958
				c1.02,3.613,1.695,6.328,1.695,7.196c0,3.637,1.119,26.02,1.119,26.02s21.543,3.078,39.449-1.119
				C137.786,274.12,146.459,271.602,146.459,271.602z"/>
			<path style="fill:#263238;stroke:#263238;stroke-miterlimit:10;" d="M98.057,165.564c-2.518,0.28-5.596,0.28-5.596,0.28
				s-7.085,3.097-15.162,6.743l32.676,33.766c0,0,6.967-33.674,6.386-36.577c-0.25-1.249-0.715-2.712-1.163-3.975
				C107.193,165.489,99.262,165.43,98.057,165.564z"/>
		</g>
		<path style="fill:#FFFFFF;stroke:#263238;stroke-linecap:round;stroke-linejoin:round;stroke-miterlimit:10;" d="M108.689,156.051
			c0,0,1.679,14.549,2.518,17.347c0.839,2.798-4.756,22.383-4.756,22.383s-16.227-16.507-18.186-21.263
			c-1.959-4.756-6.435-21.264-6.435-21.264S96.098,160.528,108.689,156.051z"/>
		<path style="fill:#263238;stroke:#263238;stroke-linecap:round;stroke-linejoin:round;stroke-miterlimit:10;" d="M81.829,153.253
			c0,0,1.022,3.768,2.302,8.221c0.681,0.375,1.5,0.807,2.498,1.306c5.097,2.548,10.76,3.964,16.989,3.115
			c2.674-0.365,4.447-2.037,5.758-4.202c-0.398-3.132-0.688-5.641-0.688-5.641C96.098,160.528,81.829,153.253,81.829,153.253z"/>
		<g>
			<path style="fill:#FFFFFF;stroke:#263238;stroke-linecap:round;stroke-linejoin:round;stroke-miterlimit:10;" d="
				M101.498,119.329c0,0,4.247,8.494,7.079,12.175c2.831,3.681,7.361,11.891,5.381,16.705c-1.977,4.805-3.276,13.01-9.628,13.876
				c-6.229,0.85-11.892-0.566-16.989-3.115c-5.097-2.548-5.663-3.398-5.663-3.398s-4.247,0-6.796-1.982
				c-2.548-1.982-7.645-8.211-6.229-13.591c1.416-5.38,4.813-5.946,4.813-5.946s-7.079-2.831-2.548-9.91
				c4.53-7.079,14.158-9.627,18.688-9.627C94.136,114.516,101.498,119.329,101.498,119.329z"/>
			<path style="fill:none;stroke:#263238;stroke-linecap:round;stroke-linejoin:round;stroke-miterlimit:10;" d="M100.082,128.673
				c0,0,0.566,1.133,2.548,2.548c1.982,1.416,4.814,0.566,3.964,3.115c-0.85,2.548-2.832,3.398-4.53,3.115"/>
			<path style="fill:none;stroke:#263238;stroke-linecap:round;stroke-linejoin:round;stroke-miterlimit:10;" d="M106.878,140.566
				c0,0-5.38,3.115-9.061,2.831c-3.681-0.283-5.38-1.699-5.38-1.699"/>
			<path style="fill:#263238;stroke:#263238;stroke-linecap:round;stroke-linejoin:round;stroke-miterlimit:10;" d="M94.985,143.397
				c0,0,1.982,7.079,4.814,4.814c2.832-2.265,3.398-5.946,3.398-5.946S98.949,143.963,94.985,143.397z"/>
			<path style="fill:#263238;" d="M94.706,131.126c0.627,0.984,0.647,2.093,0.044,2.477c-0.603,0.384-1.6-0.102-2.227-1.085
				c-0.627-0.984-0.647-2.093-0.044-2.477C93.082,129.657,94.079,130.143,94.706,131.126z"/>
			<path style="fill:#263238;" d="M103.748,126.852c0.627,0.984,0.647,2.093,0.044,2.477c-0.603,0.384-1.6-0.102-2.227-1.085
				c-0.627-0.984-0.647-2.093-0.044-2.477C102.123,125.382,103.12,125.868,103.748,126.852z"/>
			<path style="fill:none;stroke:#263238;stroke-linecap:round;stroke-linejoin:round;stroke-miterlimit:10;" d="M88.773,130.277
				c0,0,0.822-3.781,3.781-4.274"/>
			<path style="fill:none;stroke:#263238;stroke-linecap:round;stroke-linejoin:round;stroke-miterlimit:10;" d="M98.472,124.359
				c0,0,1.644-3.123,4.274-1.808"/>
		</g>
		<path style="fill:#263238;stroke:#263238;stroke-linecap:round;stroke-linejoin:round;stroke-miterlimit:10;" d="M74.315,128.107
			c0,0,18.405,0,19.821-3.115c1.416-3.115-2.831-5.38-2.831-5.38s15.856,0.566,17.555-4.247s-5.663-6.796-7.928-6.796
			c-2.265,0-3.398,0-3.398,0s-0.849-7.079-9.061-5.38c-8.211,1.699-24.068,12.459-26.05,18.688
			c-1.982,6.229-6.513,8.211-3.115,15.573c3.398,7.362,12.742,13.308,12.742,13.308s-1.416-5.38,1.416-5.663
			c2.832-0.283,7.645,1.699,8.495,1.699c0.85,0,3.398-2.265,1.982-3.681c-1.416-1.416-2.831-2.265-3.115-3.115
			c-0.283-0.85,1.416-3.681,0.283-6.229C79.978,131.221,74.315,128.107,74.315,128.107z"/>
		<g>
			<path style="fill:#92E3A9;stroke:#263238;stroke-miterlimit:10;" d="M90.056,161.697l-6.561,4.361
				c-1.062,0.706-2.495,0.417-3.201-0.645l-12.931-19.454c-0.706-1.062-0.417-2.496,0.645-3.202l6.561-4.361
				c1.062-0.706,2.496-0.417,3.202,0.645l12.93,19.454C91.407,159.558,91.118,160.992,90.056,161.697z"/>
			<path style="fill:#FFFFFF;stroke:#263238;stroke-miterlimit:10;" d="M70.918,162.113c0,0-1.306-3.357-2.611-5.782
				c-1.306-2.425-1.306-3.544-0.373-3.544s3.357,1.119,4.104,3.917c0.746,2.798,0.373,6.155,0.373,6.155L70.918,162.113z"/>
			<path style="fill:#FFFFFF;stroke:#263238;stroke-miterlimit:10;" d="M82.109,174.983c0,0-10.632-10.632-11.005-11.564
				c-0.321-0.802,0.048-13.044,0.158-16.465c0.017-0.515,0.39-0.947,0.897-1.04h0c0.634-0.115,1.23,0.341,1.285,0.983l0.831,9.806
				l2.437-12.36c0.101-0.513,0.551-0.883,1.075-0.883l0,0c0.626,0,1.125,0.524,1.094,1.15l-0.689,13.772l3.066-11.754
				c0.16-0.614,0.791-0.979,1.403-0.812l0,0c0.541,0.147,0.895,0.667,0.833,1.224l-1.386,12.648l2.611,2.238v-4.477l3.124-5.262
				c0.236-0.398,0.74-0.546,1.154-0.339l0,0c0.423,0.212,0.604,0.719,0.411,1.151l-2.078,4.636c0,0,4.104,16.787,4.29,17.347
				s-0.746,3.544-1.306,4.663c-0.56,1.119-25.553,54.091-27.046,56.143c-1.492,2.052-11.564,5.223-16.041,0.373
				c-4.476-4.85-2.984-9.699-0.559-15.295C49.095,215.272,82.109,174.983,82.109,174.983z"/>
		</g>
		
			<line style="fill:none;stroke:#808080;stroke-linecap:round;stroke-linejoin:round;stroke-miterlimit:10;" x1="85.845" y1="288.457" x2="99.996" y2="296.65"/>
		
			<line style="fill:none;stroke:#808080;stroke-linecap:round;stroke-linejoin:round;stroke-miterlimit:10;" x1="143.194" y1="282.871" x2="134.629" y2="294.043"/>
	</g>
</g>
<g id="Floor">
	
		<line style="fill:none;stroke:#263238;stroke-linecap:round;stroke-linejoin:round;stroke-miterlimit:10;" x1="30" y1="466" x2="477" y2="466"/>
</g>
</svg>
