<svg width="110" height="100" viewBox="0 0 110 100" fill="none" xmlns="http://www.w3.org/2000/svg">
<path fill-rule="evenodd" clip-rule="evenodd" d="M52.8757 44.4236C54.2823 47.1844 54.2823 50.7985 54.2823 58.0267V64.993C54.2823 65.7148 54.2823 66.0757 54.2679 66.3807C53.9532 73.0289 48.6346 78.3475 41.9864 78.6622C41.6814 78.6766 41.2788 78.6766 40.4736 78.6766L40.267 78.6769C37.6335 78.6938 35.0682 79.5159 32.9154 81.0328L32.7785 81.1303L26.0396 85.9438C23.7294 87.5939 20.6937 85.2109 21.7481 82.575C22.4949 80.7078 21.1198 78.6766 19.1088 78.6766H17.5555C12.1787 78.6766 7.81992 74.3179 7.81992 68.9411V58.0267C7.81992 50.7985 7.81992 47.1844 9.22661 44.4236C10.464 41.9952 12.4384 40.0208 14.8668 38.7834C17.6276 37.3767 21.2417 37.3767 28.4699 37.3767H33.6324C40.8605 37.3767 44.4746 37.3767 47.2354 38.7834C49.6639 40.0208 51.6383 41.9952 52.8757 44.4236ZM23.3074 58.0267C23.3074 59.4523 22.1517 60.6079 20.7261 60.6079C19.3006 60.6079 18.1449 59.4523 18.1449 58.0267C18.1449 56.6011 19.3006 55.4454 20.7261 55.4454C22.1517 55.4454 23.3074 56.6011 23.3074 58.0267ZM33.6324 58.0267C33.6324 59.4523 32.4767 60.6079 31.0511 60.6079C29.6255 60.6079 28.4699 59.4523 28.4699 58.0267C28.4699 56.6011 29.6255 55.4454 31.0511 55.4454C32.4767 55.4454 33.6324 56.6011 33.6324 58.0267ZM41.3761 60.6079C42.8017 60.6079 43.9574 59.4523 43.9574 58.0267C43.9574 56.6011 42.8017 55.4454 41.3761 55.4454C39.9505 55.4454 38.7949 56.6011 38.7949 58.0267C38.7949 59.4523 39.9505 60.6079 41.3761 60.6079Z" fill="url(#paint0_linear_1_741)"/>
<g filter="url(#filter0_b_1_741)">
<path fill-rule="evenodd" clip-rule="evenodd" d="M98.5975 21.1869C100.848 25.6042 100.848 31.3868 100.848 42.9518V47.8426C100.848 54.8188 100.848 58.3068 100.014 61.1521C98.0351 67.9009 92.7574 73.1786 86.0085 75.1575C83.1633 75.9918 79.6752 75.9918 72.6991 75.9918H70.4325L70.1636 75.9922C65.9501 76.0192 61.8456 77.3345 58.4011 79.7617L58.1821 79.9176L47.3998 87.6192C43.7035 90.2594 38.8464 86.4466 40.5334 82.2291C41.7284 79.2416 39.5282 75.9918 36.3105 75.9918H33.8252C25.2223 75.9918 18.2483 69.0178 18.2483 60.4149V42.9518C18.2483 31.3868 18.2483 25.6042 20.499 21.1869C22.4788 17.3014 25.6379 14.1424 29.5234 12.1626C33.9407 9.91187 39.7232 9.91187 51.2883 9.91187H67.8083C79.3733 9.91187 85.1559 9.91187 89.5731 12.1626C93.4587 14.1424 96.6177 17.3014 98.5975 21.1869Z" fill="#28A745" fill-opacity="0.35"/>
<path d="M101.348 42.9518V42.9281C101.348 37.1656 101.348 32.812 101.065 29.3482C100.781 25.8739 100.21 23.2508 99.043 20.96C97.0153 16.9803 93.7797 13.7448 89.8001 11.7171C87.5093 10.5498 84.8862 9.97873 81.4118 9.69486C77.9481 9.41186 73.5945 9.41186 67.832 9.41187H67.8083H51.2883H51.2646C45.5021 9.41186 41.1485 9.41186 37.6847 9.69486C34.2104 9.97873 31.5873 10.5498 29.2964 11.7171C25.3168 13.7448 22.0812 16.9803 20.0535 20.96C18.8863 23.2508 18.3152 25.8739 18.0313 29.3482C17.7483 32.812 17.7483 37.1656 17.7483 42.9281V42.9518V60.4149C17.7483 69.2939 24.9462 76.4918 33.8252 76.4918H36.3105C39.1744 76.4918 41.1328 79.3843 40.0691 82.0434C38.1967 86.7245 43.5878 90.9566 47.6904 88.0261L58.4721 80.3249L58.4727 80.3245L58.6891 80.1704C58.6895 80.1701 58.6899 80.1699 58.6902 80.1696C62.0508 77.8019 66.0552 76.5187 70.1661 76.4922C70.1663 76.4922 70.1666 76.4922 70.1668 76.4922L70.4325 76.4918H70.4333H72.6991H72.8209C79.682 76.4918 83.2349 76.4918 86.1492 75.6373C93.0615 73.6105 98.4669 68.205 100.494 61.2928C101.348 58.3785 101.348 54.8256 101.348 47.9645V47.8426V42.9518Z" stroke="url(#paint1_linear_1_741)" stroke-linecap="round"/>
</g>
<g filter="url(#filter1_d_1_741)">
<path d="M47.1581 42.9518C47.1581 45.2327 45.309 47.0818 43.0281 47.0818C40.7471 47.0818 38.8981 45.2327 38.8981 42.9518C38.8981 40.6708 40.7471 38.8218 43.0281 38.8218C45.309 38.8218 47.1581 40.6708 47.1581 42.9518Z" fill="url(#paint2_linear_1_741)"/>
<path d="M63.6781 42.9518C63.6781 45.2327 61.829 47.0818 59.5481 47.0818C57.2671 47.0818 55.4181 45.2327 55.4181 42.9518C55.4181 40.6708 57.2671 38.8218 59.5481 38.8218C61.829 38.8218 63.6781 40.6708 63.6781 42.9518Z" fill="url(#paint3_linear_1_741)"/>
<path d="M76.068 47.0818C78.349 47.0818 80.198 45.2327 80.198 42.9518C80.198 40.6708 78.349 38.8218 76.068 38.8218C73.7871 38.8218 71.938 40.6708 71.938 42.9518C71.938 45.2327 73.7871 47.0818 76.068 47.0818Z" fill="url(#paint4_linear_1_741)"/>
</g>
<defs>
<filter id="filter0_b_1_741" x="-6.75168" y="-15.0881" width="132.6" height="128.584" filterUnits="userSpaceOnUse" color-interpolation-filters="sRGB">
<feFlood flood-opacity="0" result="BackgroundImageFix"/>
<feGaussianBlur in="BackgroundImageFix" stdDeviation="12"/>
<feComposite in2="SourceAlpha" operator="in" result="effect1_backgroundBlur_1_741"/>
<feBlend mode="normal" in="SourceGraphic" in2="effect1_backgroundBlur_1_741" result="shape"/>
</filter>
<filter id="filter1_d_1_741" x="35.8981" y="35.8218" width="57.2999" height="24.26" filterUnits="userSpaceOnUse" color-interpolation-filters="sRGB">
<feFlood flood-opacity="0" result="BackgroundImageFix"/>
<feColorMatrix in="SourceAlpha" type="matrix" values="0 0 0 0 0 0 0 0 0 0 0 0 0 0 0 0 0 0 127 0" result="hardAlpha"/>
<feOffset dx="5" dy="5"/>
<feGaussianBlur stdDeviation="4"/>
<feColorMatrix type="matrix" values="0 0 0 0 0.176471 0 0 0 0 0.556863 0 0 0 0 0.678431 0 0 0 0.5 0"/>
<feBlend mode="normal" in2="BackgroundImageFix" result="effect1_dropShadow_1_741"/>
<feBlend mode="normal" in="SourceGraphic" in2="effect1_dropShadow_1_741" result="shape"/>
</filter>
<linearGradient id="paint0_linear_1_741" x1="7.81992" y1="86.4883" x2="57.7804" y2="41.239" gradientUnits="userSpaceOnUse">
<stop stop-color="#10411B"/>
<stop offset="1" stop-color="#28A745"/>
</linearGradient>
<linearGradient id="paint1_linear_1_741" x1="18.2483" y1="9.91187" x2="96.7729" y2="92.3713" gradientUnits="userSpaceOnUse">
<stop stop-color="white" stop-opacity="0.25"/>
<stop offset="1" stop-color="white" stop-opacity="0"/>
</linearGradient>
<linearGradient id="paint2_linear_1_741" x1="59.8958" y1="48.8415" x2="64.3627" y2="26.9481" gradientUnits="userSpaceOnUse">
<stop stop-color="white"/>
<stop offset="1" stop-color="white" stop-opacity="0.2"/>
</linearGradient>
<linearGradient id="paint3_linear_1_741" x1="59.8958" y1="48.8415" x2="64.3627" y2="26.9481" gradientUnits="userSpaceOnUse">
<stop stop-color="white"/>
<stop offset="1" stop-color="white" stop-opacity="0.2"/>
</linearGradient>
<linearGradient id="paint4_linear_1_741" x1="59.8958" y1="48.8415" x2="64.3627" y2="26.9481" gradientUnits="userSpaceOnUse">
<stop stop-color="white"/>
<stop offset="1" stop-color="white" stop-opacity="0.2"/>
</linearGradient>
</defs>
</svg>
