<svg width="14" height="14" viewBox="0 0 14 14" fill="none" xmlns="http://www.w3.org/2000/svg">
<g clip-path="url(#clip0_153_1560)">
<path d="M4.45082 2.08252C4.55546 2.02544 4.66665 2.11325 4.66665 2.23245V10.1266C4.66665 10.2648 4.57209 10.3814 4.45082 10.4475L3.07998 11.2292C2.12332 11.7775 1.33582 11.3225 1.33582 10.2142V4.53835C1.33582 4.17085 1.59832 3.71585 1.92498 3.52919L4.45082 2.08252Z" fill="#7D7D7D"/>
<path d="M8.4719 3.50229C8.64223 3.58665 8.75 3.76028 8.75 3.95036V11.1621C8.75 11.5306 8.36495 11.7725 8.03298 11.6125L5.97048 10.6189C5.79748 10.5355 5.6875 10.3604 5.6875 10.1684V2.92893C5.6875 2.55807 6.07706 2.31628 6.4094 2.48086L8.4719 3.50229Z" fill="#7D7D7D"/>
<path d="M12.8333 3.78585V9.46168C12.8333 9.82918 12.5708 10.2842 12.2441 10.4709L10.5194 11.4593C10.1861 11.6503 9.77081 11.4097 9.77081 11.0255V3.81367C9.77081 3.63416 9.86705 3.46842 10.023 3.37943L11.0891 2.77085C12.0458 2.22252 12.8333 2.67752 12.8333 3.78585Z" fill="#7D7D7D"/>
</g>
<defs>
<clipPath id="clip0_153_1560">
<rect width="14" height="14" fill="white"/>
</clipPath>
</defs>
</svg>
