<svg width="14" height="14" viewBox="0 0 14 14" fill="none" xmlns="http://www.w3.org/2000/svg">
<path d="M12.3959 10.7741L11.4334 11.0016C11.2175 11.0541 11.0484 11.2175 11.0017 11.4333L10.7975 12.2908C10.6867 12.7575 10.0917 12.9033 9.78252 12.5358L8.03835 10.5291C7.89835 10.3658 7.97418 10.1091 8.18418 10.0566C9.21668 9.80582 10.1442 9.22832 10.8267 8.40582C10.9375 8.27165 11.1359 8.25415 11.2584 8.37665L12.5534 9.67165C12.9967 10.115 12.8392 10.6691 12.3959 10.7741Z" fill="#7D7D7D"/>
<path d="M1.57497 10.7741L2.53747 11.0016C2.75331 11.0541 2.92247 11.2175 2.96914 11.4333L3.17331 12.2908C3.28414 12.7575 3.87914 12.9033 4.18831 12.5358L5.93247 10.5291C6.07247 10.3658 5.99664 10.1091 5.78664 10.0566C4.75414 9.80582 3.82664 9.22832 3.14414 8.40582C3.03331 8.27165 2.83497 8.25415 2.71247 8.37665L1.41747 9.67165C0.97414 10.115 1.13164 10.6691 1.57497 10.7741Z" fill="#7D7D7D"/>
<path d="M7.00002 1.16669C4.74252 1.16669 2.91669 2.99252 2.91669 5.25002C2.91669 6.09585 3.16752 6.87169 3.59919 7.51919C4.22919 8.45252 5.22669 9.11169 6.38752 9.28085C6.58585 9.31585 6.79002 9.33335 7.00002 9.33335C7.21002 9.33335 7.41419 9.31585 7.61252 9.28085C8.77335 9.11169 9.77085 8.45252 10.4009 7.51919C10.8325 6.87169 11.0834 6.09585 11.0834 5.25002C11.0834 2.99252 9.25752 1.16669 7.00002 1.16669ZM8.78502 5.12169L8.30085 5.60585C8.21919 5.68752 8.17252 5.84502 8.20169 5.96169L8.34169 6.56252C8.45252 7.03502 8.20169 7.22169 7.78169 6.97085L7.19835 6.62669C7.09335 6.56252 6.91835 6.56252 6.81335 6.62669L6.23002 6.97085C5.81002 7.21585 5.55919 7.03502 5.67002 6.56252L5.81002 5.96169C5.83335 5.85085 5.79252 5.68752 5.71085 5.60585L5.21502 5.12169C4.92919 4.83585 5.02252 4.55002 5.41919 4.48585L6.04335 4.38085C6.14835 4.36335 6.27085 4.27002 6.31752 4.17669L6.66169 3.48835C6.84835 3.11502 7.15169 3.11502 7.33835 3.48835L7.68252 4.17669C7.72919 4.27002 7.85169 4.36335 7.96252 4.38085L8.58669 4.48585C8.97752 4.55002 9.07085 4.83585 8.78502 5.12169Z" fill="#7D7D7D"/>
</svg>
