<svg width="20" height="20" viewBox="0 0 20 20" fill="none" xmlns="http://www.w3.org/2000/svg">
<path d="M9.99857 16.4583H7.76523C6.79857 16.4583 5.9569 15.875 5.62357 14.975C5.2819 14.075 5.5319 13.0833 6.2569 12.4417L12.9152 6.61667C13.3152 6.26667 13.3236 5.79167 13.2069 5.46667C13.0819 5.14167 12.7652 4.79167 12.2319 4.79167H9.99857C9.6569 4.79167 9.37357 4.50833 9.37357 4.16667C9.37357 3.825 9.6569 3.54167 9.99857 3.54167H12.2319C13.1986 3.54167 14.0402 4.125 14.3736 5.025C14.7152 5.925 14.4652 6.91667 13.7402 7.55833L7.0819 13.3833C6.6819 13.7333 6.67357 14.2083 6.79023 14.5333C6.91523 14.8583 7.2319 15.2083 7.76523 15.2083H9.99857C10.3402 15.2083 10.6236 15.4917 10.6236 15.8333C10.6236 16.175 10.3402 16.4583 9.99857 16.4583Z" fill="#444444"/>
<path d="M16.6657 12.5H14.1657C13.249 12.5 12.499 13.25 12.499 14.1667V16.6667C12.499 17.5833 13.249 18.3333 14.1657 18.3333H16.6657C17.5824 18.3333 18.3324 17.5833 18.3324 16.6667V14.1667C18.3324 13.25 17.5824 12.5 16.6657 12.5ZM15.424 16.25C14.9657 16.25 14.5907 15.875 14.5907 15.4167C14.5907 14.9583 14.9574 14.5833 15.424 14.5833H15.4324C15.8907 14.5833 16.2657 14.9583 16.2657 15.4167C16.2657 15.875 15.8907 16.25 15.424 16.25Z" fill="#444444"/>
<path d="M4.55729 1.66667C2.94896 1.66667 1.64062 2.975 1.64062 4.58333C1.64062 6.19167 2.94896 7.5 4.55729 7.5C6.16563 7.5 7.47396 6.19167 7.47396 4.58333C7.47396 2.975 6.17396 1.66667 4.55729 1.66667ZM4.59063 5.41667C4.13229 5.41667 3.75729 5.04167 3.75729 4.58333C3.75729 4.125 4.12396 3.75 4.59063 3.75H4.59896C5.05729 3.75 5.43229 4.125 5.43229 4.58333C5.43229 5.04167 5.05729 5.41667 4.59063 5.41667Z" fill="#444444"/>
</svg>
