<svg width="20" height="20" viewBox="0 0 20 20" fill="none" xmlns="http://www.w3.org/2000/svg">
<path d="M15.2747 4.725L5.49141 14.5083C5.12474 14.875 4.50807 14.825 4.20807 14.3917C3.17474 12.8833 2.56641 11.1 2.56641 9.26667V5.60833C2.56641 4.925 3.08307 4.15 3.71641 3.89167L8.35807 1.99167C9.40807 1.55833 10.5747 1.55833 11.6247 1.99167L14.9997 3.36667C15.5497 3.59167 15.6914 4.30833 15.2747 4.725Z" fill="#444444"/>
<path d="M16.0587 5.86667C16.6003 5.40833 17.4253 5.8 17.4253 6.50833V9.26667C17.4253 13.3417 14.467 17.1583 10.4253 18.275C10.1503 18.35 9.85033 18.35 9.567 18.275C8.38366 17.9417 7.28366 17.3833 6.342 16.65C5.942 16.3417 5.90033 15.7583 6.25033 15.4C8.067 13.5417 13.3837 8.125 16.0587 5.86667Z" fill="#444444"/>
</svg>
