<svg width="14" height="14" viewBox="0 0 14 14" fill="none" xmlns="http://www.w3.org/2000/svg">
<path d="M7.00001 8.16669C4.07751 8.16669 1.69751 10.1267 1.69751 12.5417C1.69751 12.705 1.82584 12.8334 1.98918 12.8334H12.0108C12.1742 12.8334 12.3025 12.705 12.3025 12.5417C12.3025 10.1267 9.92251 8.16669 7.00001 8.16669Z" fill="#7D7D7D"/>
<path d="M6.99998 1.16669C6.31165 1.16669 5.68165 1.40585 5.17998 1.80835C4.50915 2.33919 4.08331 3.16169 4.08331 4.08335C4.08331 4.63169 4.23498 5.14502 4.50915 5.58252C5.01081 6.42835 5.93248 7.00002 6.99998 7.00002C7.73498 7.00002 8.40581 6.73169 8.91915 6.27085C9.14665 6.07835 9.34498 5.84502 9.49665 5.58252C9.76498 5.14502 9.91665 4.63169 9.91665 4.08335C9.91665 2.47335 8.60998 1.16669 6.99998 1.16669ZM8.51081 3.76835L6.95331 5.20335C6.84831 5.30252 6.71415 5.34919 6.57998 5.34919C6.43998 5.34919 6.29998 5.29669 6.19498 5.19169L5.47748 4.46835C5.26165 4.25252 5.26165 3.90835 5.47748 3.69252C5.69331 3.47669 6.03748 3.47669 6.25331 3.69252L6.59748 4.03669L7.76998 2.95752C7.99165 2.75335 8.33581 2.76502 8.53998 2.98669C8.74415 3.21419 8.73248 3.56419 8.51081 3.76835Z" fill="#7D7D7D"/>
</svg>
